<?xml version="1.0" encoding="UTF-8" standalone="no"?>
<!-- Created with Inkscape (http://www.inkscape.org/) -->

<svg
   xmlns:sketch="http://www.bohemiancoding.com/sketch/ns"
   xmlns:dc="http://purl.org/dc/elements/1.1/"
   xmlns:cc="http://creativecommons.org/ns#"
   xmlns:rdf="http://www.w3.org/1999/02/22-rdf-syntax-ns#"
   xmlns:svg="http://www.w3.org/2000/svg"
   xmlns="http://www.w3.org/2000/svg"
   xmlns:sodipodi="http://sodipodi.sourceforge.net/DTD/sodipodi-0.dtd"
   xmlns:inkscape="http://www.inkscape.org/namespaces/inkscape"
   width="210mm"
   height="297mm"
   viewBox="0 0 210 297"
   version="1.1"
   id="svg8"
   inkscape:export-filename="C:\Users\i354324\fakeroot\code\ntrance\docs\images\architecture.png"
   inkscape:export-xdpi="96"
   inkscape:export-ydpi="96"
   inkscape:version="0.92.5 (2060ec1f9f, 2020-04-08)"
   sodipodi:docname="architecture.svg">
  <defs
     id="defs2">
    <linearGradient
       id="linearGradient-1"
       y2="97.845656"
       x2="49.02155"
       y1="-0.079835396"
       x1="49.02155"
       gradientTransform="scale(0.46153975,2.1666606)"
       gradientUnits="userSpaceOnUse">
      <stop
         id="stop866"
         offset="0%"
         stop-opacity="0.800235524"
         stop-color="#16B0ED" />
      <stop
         id="stop868"
         offset="100%"
         stop-opacity="0.83700023"
         stop-color="#0F59B2" />
    </linearGradient>
    <linearGradient
       id="linearGradient-2"
       y2="98.851547"
       x2="326.17366"
       y1="-0.069164939"
       x1="326.17366"
       gradientTransform="scale(0.46628455,2.1446132)"
       gradientUnits="userSpaceOnUse">
      <stop
         id="stop871"
         offset="0%"
         stop-color="#7DB643" />
      <stop
         id="stop873"
         offset="100%"
         stop-color="#367533" />
    </linearGradient>
    <linearGradient
       id="linearGradient-3"
       y2="178.55785"
       x2="103.88479"
       y1="-0.11508822"
       x1="103.88479"
       gradientTransform="scale(0.84203823,1.1875945)"
       gradientUnits="userSpaceOnUse">
      <stop
         id="stop876"
         offset="0%"
         stop-opacity="0.8"
         stop-color="#88C649" />
      <stop
         id="stop878"
         offset="100%"
         stop-opacity="0.84"
         stop-color="#439240" />
    </linearGradient>
    <clipPath
       id="a">
      <path
         id="path1031"
         d="M239.03 226.605l-42.13 24.317c-1.578.91-2.546 2.59-2.546 4.406v48.668c0 1.817.968 3.496 2.546 4.406l42.133 24.336c1.575.907 3.517.907 5.09 0l42.126-24.336c1.57-.91 2.54-2.59 2.54-4.406v-48.668c0-1.816-.97-3.496-2.55-4.406l-42.12-24.317c-.79-.453-1.67-.68-2.55-.68-.88 0-1.76.227-2.55.68" />
    </clipPath>
    <linearGradient
       gradientUnits="userSpaceOnUse"
       gradientTransform="matrix(-38.064915,77.652126,-77.652126,-38.064915,258.72325,244.62943)"
       x2="1.251"
       x1="-.348"
       id="b">
      <stop
         id="stop1034"
         stop-color="#3E863D"
         offset=".3" />
      <stop
         id="stop1036"
         stop-color="#55934F"
         offset=".5" />
      <stop
         id="stop1038"
         stop-color="#5AAD45"
         offset=".8" />
    </linearGradient>
    <clipPath
       id="c">
      <path
         id="path1041"
         d="M195.398 307.086c.403.523.907.976 1.5 1.316l36.14 20.875 6.02 3.46c.9.52 1.926.74 2.934.665.336-.027.672-.09 1-.183l44.434-81.36c-.34-.37-.738-.68-1.184-.94l-27.586-15.93-14.582-8.39c-.414-.24-.863-.41-1.32-.53zm0 0" />
    </clipPath>
    <linearGradient
       gradientUnits="userSpaceOnUse"
       gradientTransform="matrix(106.8057,-78.916731,78.916731,106.8057,235.18824,285.39477)"
       x2=".582"
       x1="-.456"
       id="d">
      <stop
         id="stop1044"
         stop-color="#3E863D"
         offset=".57" />
      <stop
         id="stop1046"
         stop-color="#619857"
         offset=".72" />
      <stop
         id="stop1048"
         stop-color="#76AC64"
         offset="1" />
    </linearGradient>
    <clipPath
       id="e">
      <path
         id="path1051"
         d="M241.066 225.953c-.707.07-1.398.29-2.035.652l-42.01 24.247 45.3 82.51c.63-.09 1.25-.3 1.81-.624l42.13-24.336c1.3-.754 2.19-2.03 2.46-3.476l-46.18-78.89c-.34-.067-.68-.102-1.03-.102-.14 0-.28.007-.42.02" />
    </clipPath>
    <linearGradient
       gradientUnits="userSpaceOnUse"
       gradientTransform="matrix(97.417,0,0,97.417,192.862,279.652)"
       x2=".984"
       x1=".043"
       id="f">
      <stop
         id="stop1054"
         stop-color="#6BBF47"
         offset=".16" />
      <stop
         id="stop1056"
         stop-color="#79B461"
         offset=".38" />
      <stop
         id="stop1058"
         stop-color="#75AC64"
         offset=".47" />
      <stop
         id="stop1060"
         stop-color="#659E5A"
         offset=".7" />
      <stop
         id="stop1062"
         stop-color="#3E863D"
         offset=".9" />
    </linearGradient>
  </defs>
  <sodipodi:namedview
     id="base"
     pagecolor="#ffffff"
     bordercolor="#666666"
     borderopacity="1.0"
     inkscape:pageopacity="0.0"
     inkscape:pageshadow="2"
     inkscape:zoom="0.90509668"
     inkscape:cx="32.557042"
     inkscape:cy="759.9284"
     inkscape:document-units="mm"
     inkscape:current-layer="layer1"
     showgrid="false"
     inkscape:window-width="1920"
     inkscape:window-height="1051"
     inkscape:window-x="-9"
     inkscape:window-y="-9"
     inkscape:window-maximized="1" />
  <metadata
     id="metadata5">
    <rdf:RDF>
      <cc:Work
         rdf:about="">
        <dc:format>image/svg+xml</dc:format>
        <dc:type
           rdf:resource="http://purl.org/dc/dcmitype/StillImage" />
        <dc:title></dc:title>
      </cc:Work>
    </rdf:RDF>
  </metadata>
  <g
     inkscape:label="Layer 1"
     inkscape:groupmode="layer"
     id="layer1">
    <rect
       style="fill:#00d200;fill-opacity:1;stroke:none;stroke-width:0.40000001;stroke-linecap:butt;stroke-linejoin:round;stroke-miterlimit:4;stroke-dasharray:none;stroke-dashoffset:0;stroke-opacity:1"
       id="rect815"
       width="39.171692"
       height="19.585846"
       x="12.277694"
       y="51.738441"
       ry="8.0762119" />
    <g
       sketch:type="MSPage"
       id="Page-1"
       transform="matrix(0.04832845,0,0,0.04832845,-28.528313,18.360706)"
       style="fill:none;fill-rule:evenodd;stroke:none;stroke-width:1">
      <g
         transform="translate(1,1)"
         sketch:type="MSLayerGroup"
         id="mark">
        <path
           sketch:type="MSShapeGroup"
           id="Left---green"
           d="M 0.02714063,45.458544 45.223647,-0.17297621 45.223646,211.99833 0.02714063,166.89384 Z"
           inkscape:connector-curvature="0"
           style="fill:url(#linearGradient-1)" />
        <path
           transform="matrix(-1,0,0,1,304,0)"
           sketch:type="MSShapeGroup"
           id="Right---blue"
           d="M 129.33671,45.889361 175.15234,-0.14833204 174.22365,211.99833 129.02714,166.89384 Z"
           inkscape:connector-curvature="0"
           style="fill:url(#linearGradient-2)" />
        <path
           sketch:type="MSShapeGroup"
           id="Cross---blue"
           d="M 45.193511,-0.13667814 162.69969,179.17338 129.81792,212.05433 12.250244,33.141173 Z"
           inkscape:connector-curvature="0"
           style="fill:url(#linearGradient-3)" />
        <path
           sketch:type="MSShapeGroup"
           id="Shadow"
           d="m 45.233948,83.032105 -0.0625,7.0625 -36.2805789,-53.5625 3.3593749,-3.422181 z"
           inkscape:connector-curvature="0"
           style="fill:#000000;fill-opacity:0.12999998" />
      </g>
      <g
         transform="translate(227,30)"
         sketch:type="MSLayerGroup"
         id="wordmark"
         style="fill:#444444">
        <g
           sketch:type="MSShapeGroup"
           id="Group">
          <g
             id="g898"
             transform="translate(0,29)">
            <path
               id="Shape"
               d="M 0,95 V 5.4401583 h 4.6547315 c 1.5503836,0 2.4455242,0.7506824 2.6854219,2.2502472 L 8.1457801,21.191889 C 12.204348,16.032522 16.932481,11.875866 22.33376,8.7255193 27.733248,5.5751731 33.746803,4 40.370844,4 c 4.892839,0 9.205627,0.7812859 12.934783,2.3402572 3.729156,1.5607715 6.817391,3.8110188 9.264705,6.7507418 2.447315,2.941523 4.296676,6.480712 5.549873,10.621167 C 69.373401,27.852621 70,32.533135 70,37.753709 V 95 H 61.496164 V 37.753709 c 0,-8.401523 -1.91023,-14.986647 -5.728901,-19.757171 -3.82046,-4.770524 -9.667519,-7.155786 -17.544757,-7.155786 -5.850639,0 -11.278772,1.515766 -16.29156,4.545499 -5.012787,3.031533 -9.488491,7.18639 -13.4271097,12.46637 V 95 Z"
               inkscape:connector-curvature="0" />
            <path
               id="path889"
               d="m 123.62381,4 c 5.06667,0 9.75514,0.8678906 14.06905,2.6054687 4.31209,1.7375782 8.05238,4.2675783 11.21904,7.5917973 3.16667,3.324218 5.63848,7.412109 7.41905,12.263671 C 158.10971,31.3125 159,36.882812 159,43.171875 c 0,1.317109 -0.19543,2.215547 -0.5881,2.695312 -0.39266,0.479766 -1.00971,0.71875 -1.85114,0.71875 H 91.595238 v 1.707032 c 0,6.707734 0.783524,12.608672 2.352381,17.699218 1.567048,5.090547 3.8,9.358125 6.695241,12.802735 2.89524,3.444609 6.39305,6.033906 10.49524,7.771484 4.10038,1.737578 8.68571,2.605469 13.75238,2.605469 4.52381,0 8.44504,-0.494141 11.7619,-1.482422 3.31686,-0.988281 6.10714,-2.096953 8.36905,-3.324219 2.2619,-1.227265 4.05695,-2.335937 5.38333,-3.324218 1.32638,-0.988282 2.29267,-1.482422 2.89524,-1.482422 0.78352,0 1.3879,0.300078 1.80952,0.898437 l 2.35238,2.875 c -1.44761,1.796875 -3.36209,3.475156 -5.74523,5.03125 -2.38315,1.557891 -5.03772,2.891172 -7.96191,3.998047 -2.926,1.108672 -6.0619,1.990938 -9.40952,2.650391 C 130.99762,95.669375 127.63552,96 124.25714,96 118.10476,96 112.49524,94.93625 107.42857,92.810547 102.3619,90.684844 98.013619,87.585234 94.385524,83.511719 90.755619,79.438203 87.950857,74.451875 85.971238,68.552734 83.98981,62.653594 83,55.899141 83,48.292969 83,41.885312 83.919238,35.97 85.759524,30.548828 87.59981,25.127656 90.252571,20.455781 93.721429,16.533203 97.188476,12.610625 101.44086,9.5415625 106.47857,7.3242187 111.51267,5.1086719 117.22895,4 123.62381,4 Z m 0.57283,6 c -4.69557,0 -8.90382,0.701754 -12.6229,2.105263 -3.72092,1.403509 -6.93618,3.421053 -9.64947,6.052632 -2.713278,2.631579 -4.908087,5.789473 -6.586255,9.473684 C 93.659847,31.315789 92.549618,35.438597 92,40 h 60 c 0,-4.678947 -0.67237,-8.873684 -2.01343,-12.587719 -1.34291,-3.712281 -3.23176,-6.856141 -5.67023,-9.429825 -2.43848,-2.57193 -5.36611,-4.545614 -8.78107,-5.921052 C 132.12214,10.687719 128.34259,10 124.19664,10 Z"
               inkscape:connector-curvature="0" />
            <path
               id="path891"
               d="m 208.54576,4 c 6.52652,0 12.36855,1.0925 17.52425,3.2792969 5.15387,2.1867969 9.50062,5.2864061 13.04024,9.2988281 3.5378,4.012422 6.23736,8.849609 8.09868,14.509766 1.86132,5.660156 2.79107,11.99414 2.79107,19.001953 0,7.007812 -0.93158,13.327422 -2.79107,18.957031 -1.86132,5.631406 -4.56088,10.452422 -8.09868,14.464844 -3.53962,4.012422 -7.88637,7.097656 -13.04024,9.253906 C 220.91431,94.921875 215.07228,96 208.54576,96 202.0174,96 196.1772,94.921875 191.0215,92.765625 c -5.1557,-2.15625 -9.51709,-5.241484 -13.086,-9.253906 -3.56891,-4.012422 -6.28494,-8.835235 -8.14443,-14.464844 C 167.92975,63.417266 167,57.097656 167,50.089844 c 0,-7.007813 0.92975,-13.341797 2.79107,-19.001953 1.86132,-5.660157 4.57552,-10.495547 8.14443,-14.509766 3.56891,-4.012422 7.9303,-7.1120312 13.086,-9.2988281 C 196.1772,5.0942969 202.0174,4 208.54576,4 Z m -0.50075,86 c 5.34143,0 10.00596,-0.918352 13.99718,-2.756865 3.98943,-1.838513 7.31995,-4.474256 9.99157,-7.909039 2.66981,-3.434782 4.66452,-7.576407 5.98593,-12.42849 C 239.3375,62.055332 240,56.617529 240,50.590389 c 0,-5.965675 -0.6607,-11.389016 -1.98031,-16.270023 -1.32141,-4.881007 -3.31612,-9.053364 -5.98593,-12.518879 -2.66982,-3.463707 -6.00034,-6.130183 -9.99157,-7.999427 C 218.05097,11.934622 213.38464,11 208.04501,11 c -5.33964,0 -10.00777,0.934622 -13.99719,2.80206 -3.99122,1.869244 -7.32174,4.53572 -9.99156,7.999427 -2.67162,3.465515 -4.68073,7.637872 -6.03094,12.518879 C 176.6751,39.201373 176,44.624714 176,50.590389 c 0,6.025332 0.6751,11.464943 2.02532,16.315217 1.35021,4.852083 3.35932,8.993708 6.03094,12.42849 2.66982,3.434783 6.00034,6.070526 9.99156,7.909039 C 198.03724,89.081648 202.70357,90 208.04501,90 Z"
               inkscape:connector-curvature="0" />
            <path
               id="path893"
               d="M 303.56978,93 H 283.51973 L 247,1 h 18.34937 c 1.61117,0 2.96813,0.3891618 4.07267,1.165692 1.10275,0.7783236 1.86537,1.762885 2.28248,2.9590643 l 17.72281,49.1384017 c 1.01325,2.869396 1.86537,5.67961 2.55101,8.42885 0.68565,2.751033 1.29789,5.500273 1.83494,8.249512 0.53706,-2.749239 1.14751,-5.498479 1.83494,-8.249512 0.68564,-2.74924 1.56641,-5.559454 2.64052,-8.42885 L 316.45909,5.1247563 C 316.87621,3.928577 317.62271,2.9440156 318.69682,2.165692 319.77093,1.3891618 321.0527,1 322.54572,1 H 340 Z"
               inkscape:connector-curvature="0" />
            <rect
               height="92"
               width="23"
               y="2"
               x="345"
               id="Rectangle" />
            <path
               id="path896"
               d="M 383,94 V 1.4433781 h 13.62391 c 2.8868,0 4.77946,1.353167 5.68159,4.059501 l 1.4434,6.8560459 c 1.62383,-1.804223 3.32344,-3.4586947 5.09702,-4.9616121 1.77358,-1.5029175 3.66804,-2.7965452 5.68339,-3.8790787 2.01355,-1.0825336 4.17865,-1.9395394 6.49531,-2.57101731 C 423.33948,0.31573896 425.87986,0 428.64939,0 c 5.83135,0 10.62885,1.5786948 14.38892,4.7360844 3.75825,3.1573897 6.57108,7.3522076 8.43488,12.5844526 1.4434,-3.067178 3.24765,-5.697735 5.41275,-7.8934737 2.16511,-2.1939347 4.54131,-3.9837236 7.1268,-5.3675623 2.58549,-1.3820346 5.33698,-2.4050288 8.25446,-3.06717854 C 475.18287,0.33017275 478.11478,0 481.06293,0 c 5.11144,0 9.65275,0.78303263 13.6221,2.3454894 3.96936,1.5642611 7.30723,3.8484069 10.0136,6.8560461 2.70638,3.0076395 4.76684,6.6756235 6.17957,11.0057585 C 512.29093,24.537428 513,29.49904 513,35.092131 V 94 H 490.71568 V 35.092131 c 0,-5.894396 -1.29365,-10.329175 -3.87734,-13.306143 -2.5873,-2.976967 -6.37623,-4.465451 -11.3686,-4.465451 -2.28598,0 -4.40418,0.391517 -6.35818,1.172745 -1.95581,0.783033 -3.66985,1.910672 -5.14393,3.382918 -1.47227,1.474049 -2.6306,3.323378 -3.47318,5.547984 -0.84259,2.224607 -1.26298,4.78119 -1.26298,7.667947 V 94 H 436.86054 V 35.092131 c 0,-6.193897 -1.24854,-10.704454 -3.74382,-13.53167 -2.49708,-2.825413 -6.17956,-4.239924 -11.05105,-4.239924 -3.18991,0 -6.17956,0.797467 -8.97615,2.390595 -2.7984,1.593129 -5.39833,3.774434 -7.80339,6.540307 V 94 Z"
               inkscape:connector-curvature="0" />
          </g>
          <rect
             height="19"
             width="23"
             y="0"
             x="345"
             id="rect900" />
        </g>
      </g>
    </g>
    <text
       xml:space="preserve"
       style="font-style:normal;font-variant:normal;font-weight:bold;font-stretch:normal;font-size:6.3499999px;line-height:1.25;font-family:sans-serif;-inkscape-font-specification:'sans-serif Bold';fill:#ffffff;fill-opacity:1;stroke:none;stroke-width:0.40000001;stroke-linecap:butt;stroke-linejoin:round;stroke-miterlimit:4;stroke-dasharray:none;stroke-dashoffset:0;stroke-opacity:1"
       x="21.924454"
       y="64.308472"
       id="text942"><tspan
         sodipodi:role="line"
         id="tspan940"
         x="21.924454"
         y="64.308472"
         style="stroke-width:0.40000001">client</tspan></text>
    <text
       xml:space="preserve"
       style="font-style:normal;font-variant:normal;font-weight:bold;font-stretch:normal;font-size:6.3499999px;line-height:1.25;font-family:sans-serif;-inkscape-font-specification:'sans-serif Bold';fill:#00d200;fill-opacity:1;stroke:none;stroke-width:0.40000001;stroke-linecap:butt;stroke-linejoin:round;stroke-miterlimit:4;stroke-dasharray:none;stroke-dashoffset:0;stroke-opacity:1"
       x="-30.109581"
       y="44.722607"
       id="text946"><tspan
         sodipodi:role="line"
         id="tspan944"
         x="-30.109581"
         y="44.722607"
         style="stroke-width:0.40000001">nvim_buf_attach</tspan></text>
    <path
       style="fill:none;stroke:#000000;stroke-width:0.26458332px;stroke-linecap:butt;stroke-linejoin:miter;stroke-opacity:1"
       d="M 57.880556,61.092881 H 137.68557"
       id="path952"
       inkscape:connector-curvature="0" />
    <rect
       style="fill:#00d200;fill-opacity:1;stroke:none;stroke-width:0.40000001;stroke-linecap:butt;stroke-linejoin:round;stroke-miterlimit:4;stroke-dasharray:none;stroke-dashoffset:0;stroke-opacity:1"
       id="rect815-2"
       width="39.171692"
       height="19.585846"
       x="142.07047"
       y="51.592285"
       ry="8.0762119" />
    <g
       id="g1123"
       transform="matrix(0.06676214,0,0,0.06676214,146.1684,31.658183)">
      <path
         id="path1067"
         d="m 218.647,270.93 c -1.46,0 -2.91,-0.383 -4.19,-1.12 l -13.337,-7.896 c -1.992,-1.114 -1.02,-1.508 -0.363,-1.735 2.656,-0.93 3.195,-1.14 6.03,-2.75 0.298,-0.17 0.688,-0.11 0.993,0.07 l 10.246,6.08 c 0.37,0.2 0.895,0.2 1.238,0 l 39.95,-23.06 c 0.37,-0.21 0.61,-0.64 0.61,-1.08 v -46.1 c 0,-0.46 -0.24,-0.87 -0.618,-1.1 l -39.934,-23.04 c -0.37,-0.22 -0.86,-0.22 -1.23,0 l -39.926,23.04 c -0.387,0.22 -0.633,0.65 -0.633,1.09 v 46.1 c 0,0.44 0.24,0.86 0.62,1.07 l 10.94,6.32 c 5.94,2.97 9.57,-0.53 9.57,-4.05 v -45.5 c 0,-0.65 0.51,-1.15 1.16,-1.15 h 5.06 c 0.63,0 1.15,0.5 1.15,1.15 v 45.52 c 0,7.92 -4.32,12.47 -11.83,12.47 -2.31,0 -4.13,0 -9.21,-2.5 l -10.48,-6.04 c -2.59,-1.5 -4.19,-4.3 -4.19,-7.29 v -46.1 c 0,-3 1.6,-5.8 4.19,-7.28 l 39.99,-23.07 c 2.53,-1.43 5.89,-1.43 8.4,0 l 39.94,23.08 c 2.58,1.49 4.19,4.28 4.19,7.28 v 46.1 c 0,2.99 -1.61,5.78 -4.19,7.28 l -39.94,23.07 c -1.28,0.74 -2.73,1.12 -4.21,1.12"
         inkscape:connector-curvature="0"
         style="fill:#689f63" />
      <path
         id="path1069"
         d="m 230.987,239.164 c -17.48,0 -21.145,-8.024 -21.145,-14.754 0,-0.64 0.516,-1.15 1.157,-1.15 h 5.16 c 0.57,0 1.05,0.415 1.14,0.978 0.78,5.258 3.1,7.91 13.67,7.91 8.42,0 12,-1.902 12,-6.367 0,-2.57 -1.02,-4.48 -14.1,-5.76 -10.94,-1.08 -17.7,-3.49 -17.7,-12.24 0,-8.06 6.8,-12.86 18.19,-12.86 12.79,0 19.13,4.44 19.93,13.98 0.03,0.33 -0.09,0.65 -0.31,0.89 -0.22,0.23 -0.53,0.37 -0.85,0.37 h -5.19 c -0.54,0 -1.01,-0.38 -1.12,-0.9 -1.25,-5.53 -4.27,-7.3 -12.48,-7.3 -9.19,0 -10.26,3.2 -10.26,5.6 0,2.91 1.26,3.76 13.66,5.4 12.28,1.63 18.11,3.93 18.11,12.56 0,8.7 -7.26,13.69 -19.92,13.69 m 48.66,-48.89 h 1.34 c 1.1,0 1.31,-0.77 1.31,-1.22 0,-1.18 -0.81,-1.18 -1.26,-1.18 h -1.38 z m -1.63,-3.78 h 2.97 c 1.02,0 3.02,0 3.02,2.28 0,1.59 -1.02,1.92 -1.63,2.12 1.19,0.08 1.27,0.86 1.43,1.96 0.08,0.69 0.21,1.88 0.45,2.28 h -1.83 c -0.05,-0.4 -0.33,-2.6 -0.33,-2.72 -0.12,-0.49 -0.29,-0.73 -0.9,-0.73 h -1.51 v 3.46 h -1.67 z m -3.57,4.3 c 0,3.58 2.89,6.48 6.44,6.48 3.58,0 6.47,-2.96 6.47,-6.48 0,-3.59 -2.93,-6.44 -6.48,-6.44 -3.5,0 -6.44,2.81 -6.44,6.43 m 14.16,0.03 c 0,4.24 -3.47,7.7 -7.7,7.7 -4.2,0 -7.7,-3.42 -7.7,-7.7 0,-4.36 3.58,-7.7 7.7,-7.7 4.15,0 7.69,3.35 7.69,7.7"
         inkscape:connector-curvature="0"
         style="fill:#689f63" />
      <path
         id="path1071"
         d="m 94.936,90.55 c 0,-1.84 -0.97,-3.53 -2.558,-4.445 L 50.022,61.735 c -0.715,-0.42 -1.516,-0.64 -2.328,-0.67 h -0.438 c -0.812,0.03 -1.613,0.25 -2.34,0.67 L 2.562,86.105 C 0.984,87.025 0,88.715 0,90.555 l 0.093,65.64 c 0,0.91 0.47,1.76 1.27,2.21 0.78,0.48 1.76,0.48 2.54,0 l 25.18,-14.42 c 1.59,-0.946 2.56,-2.618 2.56,-4.44 V 108.88 c 0,-1.83 0.97,-3.52 2.555,-4.43 l 10.72,-6.174 c 0.796,-0.46 1.67,-0.688 2.56,-0.688 0.876,0 1.77,0.226 2.544,0.687 l 10.715,6.172 c 1.586,0.91 2.56,2.6 2.56,4.43 v 30.663 c 0,1.82 0.983,3.5 2.565,4.44 l 25.164,14.41 c 0.79,0.47 1.773,0.47 2.56,0 0.776,-0.45 1.268,-1.3 1.268,-2.21 z m 199.868,34.176 c 0,0.457 -0.243,0.88 -0.64,1.106 l -14.548,8.386 c -0.395,0.227 -0.883,0.227 -1.277,0 l -14.55,-8.386 c -0.4,-0.227 -0.64,-0.65 -0.64,-1.106 V 107.93 c 0,-0.458 0.24,-0.88 0.63,-1.11 l 14.54,-8.4 c 0.4,-0.23 0.89,-0.23 1.29,0 l 14.55,8.4 c 0.4,0.23 0.64,0.652 0.64,1.11 z m 3.93,-124.402 c -0.794,-0.442 -1.76,-0.43 -2.544,0.027 -0.78,0.46 -1.262,1.3 -1.262,2.21 v 65 c 0,0.64 -0.34,1.23 -0.894,1.55 -0.55,0.32 -1.235,0.32 -1.79,0 L 281.634,63 c -1.58,-0.914 -3.526,-0.914 -5.112,0 l -42.37,24.453 c -1.583,0.91 -2.56,2.6 -2.56,4.42 v 48.92 c 0,1.83 0.977,3.51 2.56,4.43 l 42.37,24.47 c 1.582,0.91 3.53,0.91 5.117,0 l 42.37,-24.48 c 1.58,-0.92 2.56,-2.6 2.56,-4.43 V 18.863 c 0,-1.856 -1.01,-3.563 -2.63,-4.47 z m 141.093,107.164 c 1.574,-0.914 2.543,-2.602 2.543,-4.422 V 91.21 c 0,-1.824 -0.97,-3.507 -2.547,-4.425 l -42.1,-24.44 c -1.59,-0.92 -3.54,-0.92 -5.13,0 l -42.36,24.45 c -1.59,0.92 -2.56,2.6 -2.56,4.43 v 48.9 c 0,1.84 0.99,3.54 2.58,4.45 l 42.09,23.99 c 1.55,0.89 3.45,0.9 5.02,0.03 l 25.46,-14.15 c 0.8,-0.45 1.31,-1.3 1.31,-2.22 0,-0.92 -0.49,-1.78 -1.29,-2.23 l -42.62,-24.46 c -0.8,-0.45 -1.29,-1.3 -1.29,-2.21 v -15.34 c 0,-0.916 0.48,-1.76 1.28,-2.216 l 13.26,-7.65 c 0.79,-0.46 1.76,-0.46 2.55,0 l 13.27,7.65 c 0.79,0.45 1.28,1.3 1.28,2.21 v 12.06 c 0,0.91 0.49,1.76 1.28,2.22 0.79,0.45 1.77,0.45 2.56,-0.01 z m 0,0"
         inkscape:connector-curvature="0"
         style="fill:#333333;fill-rule:evenodd" />
      <path
         id="path1073"
         d="m 394.538,105.2 c 0.3,-0.177 0.676,-0.177 0.98,0 l 8.13,4.69 c 0.304,0.176 0.49,0.5 0.49,0.85 v 9.39 c 0,0.35 -0.186,0.674 -0.49,0.85 l -8.13,4.69 c -0.304,0.177 -0.68,0.177 -0.98,0 l -8.125,-4.69 c -0.31,-0.176 -0.5,-0.5 -0.5,-0.85 v -9.39 c 0,-0.35 0.18,-0.674 0.49,-0.85 z m 0,0"
         inkscape:connector-curvature="0"
         style="fill:#689f63;fill-rule:evenodd" />
      <g
         id="g1077"
         transform="translate(-78.306,-164.016)"
         clip-path="url(#a)">
        <path
           id="path1075"
           d="m 331.363,246.793 -118.715,-58.19 -60.87,124.174 118.712,58.193 z m 0,0"
           inkscape:connector-curvature="0"
           style="fill:url(#b)" />
      </g>
      <g
         id="g1081"
         transform="translate(-78.306,-164.016)"
         clip-path="url(#c)">
        <path
           id="path1079"
           d="m 144.07,264.004 83.825,113.453 110.86,-81.906 -83.83,-113.45 z m 0,0"
           inkscape:connector-curvature="0"
           style="fill:url(#d)" />
      </g>
      <g
         id="g1085"
         transform="translate(-78.306,-164.016)"
         clip-path="url(#e)">
        <path
           id="path1083"
           d="m 197.02,225.934 v 107.43 h 91.683 v -107.43 z m 0,0"
           inkscape:connector-curvature="0"
           style="fill:url(#f)" />
      </g>
    </g>
    <text
       xml:space="preserve"
       style="font-style:normal;font-variant:normal;font-weight:bold;font-stretch:normal;font-size:6.3499999px;line-height:1.25;font-family:sans-serif;-inkscape-font-specification:'sans-serif Bold';fill:#ffffff;fill-opacity:1;stroke:none;stroke-width:0.40000001;stroke-linecap:butt;stroke-linejoin:round;stroke-miterlimit:4;stroke-dasharray:none;stroke-dashoffset:0;stroke-opacity:1"
       x="150.85745"
       y="63.166306"
       id="text942-9"><tspan
         sodipodi:role="line"
         id="tspan940-0"
         x="150.85745"
         y="63.166306"
         style="stroke-width:0.40000001">server</tspan></text>
    <text
       xml:space="preserve"
       style="font-style:normal;font-variant:normal;font-weight:bold;font-stretch:normal;font-size:6.3499999px;line-height:1.25;font-family:sans-serif;-inkscape-font-specification:'sans-serif Bold';fill:#00d200;fill-opacity:1;stroke:none;stroke-width:0.40000001;stroke-linecap:butt;stroke-linejoin:round;stroke-miterlimit:4;stroke-dasharray:none;stroke-dashoffset:0;stroke-opacity:1"
       x="142.08662"
       y="79.348289"
       id="text946-5"><tspan
         sodipodi:role="line"
         id="tspan944-1"
         x="142.08662"
         y="79.348289"
         style="stroke-width:0.40000001">websocket</tspan></text>
    <text
       xml:space="preserve"
       style="font-style:normal;font-variant:normal;font-weight:bold;font-stretch:normal;font-size:6.3499999px;line-height:1.25;font-family:sans-serif;-inkscape-font-specification:'sans-serif Bold';fill:#00d200;fill-opacity:1;stroke:none;stroke-width:0.40000001;stroke-linecap:butt;stroke-linejoin:round;stroke-miterlimit:4;stroke-dasharray:none;stroke-dashoffset:0;stroke-opacity:1"
       x="81.203888"
       y="69.297394"
       id="text946-5-0"><tspan
         sodipodi:role="line"
         id="tspan944-1-9"
         x="81.203888"
         y="69.297394"
         style="stroke-width:0.40000001;fill:#000000;fill-opacity:1">websocket</tspan></text>
    <text
       xml:space="preserve"
       style="font-style:normal;font-variant:normal;font-weight:bold;font-stretch:normal;font-size:6.3499999px;line-height:1.25;font-family:sans-serif;-inkscape-font-specification:'sans-serif Bold';fill:#00d200;fill-opacity:1;stroke:none;stroke-width:0.40000001;stroke-linecap:butt;stroke-linejoin:round;stroke-miterlimit:4;stroke-dasharray:none;stroke-dashoffset:0;stroke-opacity:1"
       x="34.139389"
       y="79.821136"
       id="text946-5-8"><tspan
         sodipodi:role="line"
         id="tspan944-1-5"
         x="34.139389"
         y="79.821136"
         style="stroke-width:0.40000001">vim.loop</tspan></text>
    <rect
       style="fill:#00d200;fill-opacity:1;stroke:none;stroke-width:0.40000001;stroke-linecap:butt;stroke-linejoin:round;stroke-miterlimit:4;stroke-dasharray:none;stroke-dashoffset:0;stroke-opacity:1"
       id="rect815-3"
       width="39.171692"
       height="19.585846"
       x="-97.636902"
       y="52.761585"
       ry="8.0762119" />
    <text
       xml:space="preserve"
       style="font-style:normal;font-variant:normal;font-weight:bold;font-stretch:normal;font-size:6.3499999px;line-height:1.25;font-family:sans-serif;-inkscape-font-specification:'sans-serif Bold';fill:#ffffff;fill-opacity:1;stroke:none;stroke-width:0.40000001;stroke-linecap:butt;stroke-linejoin:round;stroke-miterlimit:4;stroke-dasharray:none;stroke-dashoffset:0;stroke-opacity:1"
       x="-89.726891"
       y="65.212578"
       id="text942-3"><tspan
         sodipodi:role="line"
         id="tspan940-1"
         x="-89.726891"
         y="65.212578"
         style="stroke-width:0.40000001">buffer</tspan></text>
    <path
       style="fill:none;stroke:#000000;stroke-width:0.23150174px;stroke-linecap:butt;stroke-linejoin:miter;stroke-opacity:1"
       d="M -52.764853,61.531369 H 8.3312949"
       id="path952-4"
       inkscape:connector-curvature="0" />
    <flowRoot
       xml:space="preserve"
       id="flowRoot1263"
       style="line-height:1.25;fill:#000000;fill-opacity:1;stroke:none;stroke-opacity:1;stroke-width:1.51181102;stroke-miterlimit:4;stroke-dasharray:none;font-size:24px;stroke-dashoffset:0;-inkscape-font-specification:'sans-serif Bold';font-family:sans-serif;font-weight:bold;font-style:normal;font-stretch:normal;font-variant:normal;stroke-linejoin:round;stroke-linecap:butt"><flowRegion
         id="flowRegion1265"><rect
           id="rect1267"
           width="122.71284"
           height="30.729074"
           x="-7.7339807"
           y="26.71102" /></flowRegion><flowPara
         id="flowPara1269"></flowPara></flowRoot>    <rect
       style="fill:none;fill-opacity:1;stroke:#000000;stroke-width:0.62599999;stroke-linecap:butt;stroke-linejoin:round;stroke-miterlimit:4;stroke-dasharray:3.756, 3.756;stroke-dashoffset:0;stroke-opacity:1"
       id="rect815-3-6"
       width="179.41496"
       height="53.699928"
       x="-105.33961"
       y="34.241867"
       ry="22.143135" />
    <text
       xml:space="preserve"
       style="font-style:normal;font-variant:normal;font-weight:bold;font-stretch:normal;font-size:6.3499999px;line-height:1.25;font-family:sans-serif;-inkscape-font-specification:'sans-serif Bold';fill:#00d200;fill-opacity:1;stroke:none;stroke-width:0.40000001;stroke-linecap:butt;stroke-linejoin:round;stroke-miterlimit:4;stroke-dasharray:none;stroke-dashoffset:0;stroke-opacity:1"
       x="-52.973774"
       y="70.759026"
       id="text946-5-0-8"><tspan
         sodipodi:role="line"
         id="tspan944-1-9-9"
         x="-52.973774"
         y="70.759026"
         style="fill:#000000;fill-opacity:1;stroke-width:0.40000001">on_lines callback</tspan></text>
  </g>
</svg>
